<svg xmlns="http://www.w3.org/2000/svg" fill="none" viewBox="0 0 54 54">
<g clip-path="url(#clip0_2039_11)">
<path fill-rule="evenodd" clip-rule="evenodd" d="M16.9358 5.97827C19.7481 5.25368 22.706 5.32066 25.4826 6.17182C28.2593 7.02297 30.7465 8.62515 32.6697 10.8013C34.5928 12.9775 35.8768 15.643 36.38 18.5033C36.8831 21.3635 36.5858 24.3072 35.5208 27.009L45.8685 35.7683C46.6533 36.4315 47.2919 37.2504 47.7439 38.1731C48.1959 39.0958 48.4515 40.1023 48.4944 41.1289C48.5374 42.1555 48.3668 43.1798 47.9935 44.1371C47.6202 45.0944 47.0523 45.9638 46.3256 46.6902C45.599 47.4167 44.7295 47.9844 43.7722 48.3576C42.8148 48.7307 41.7904 48.901 40.7638 48.8578C39.7373 48.8147 38.7308 48.5589 37.8082 48.1067C36.8855 47.6545 36.0668 47.0157 35.4038 46.2308L26.649 35.8875C23.9468 36.9543 21.0023 37.253 18.141 36.7506C15.2796 36.2483 12.6129 34.9644 10.4357 33.041C8.2585 31.1176 6.65559 28.6296 5.80421 25.8521C4.95283 23.0745 4.88614 20.1156 5.61151 17.3025C5.71379 16.9073 5.92066 16.5468 6.21039 16.2592C6.50012 15.9715 6.862 15.7672 7.25798 15.6677C7.65397 15.5683 8.06943 15.5773 8.46071 15.694C8.85198 15.8106 9.2046 16.0305 9.48151 16.3305L16.3328 23.7713L21.501 21.87L23.4068 16.695L15.9615 9.85502C15.6597 9.5782 15.4383 9.22496 15.3207 8.83266C15.2031 8.44035 15.1937 8.02357 15.2936 7.62637C15.3934 7.22917 15.5987 6.86634 15.8878 6.57623C16.1768 6.28611 16.5389 6.07951 16.9358 5.97827Z" fill="#3EB492"/>
</g>
<defs>
<clipPath id="clip0_2039_11">
<rect width="54" height="54" fill="white"/>
</clipPath>
</defs>
</svg>